<svg xmlns="http://www.w3.org/2000/svg" width="90" height="32" fill="none" viewBox="0 0 90 32">
    <path fill="white"  d="M42.838 3.61c-.192-.391-.666-.546-1.058-.355l-1.396.702C39.07 1.723 36.506.173 33.659.173h-.036c-3.367.018-4.909 1.614-6.031 2.781-.2.2-.383.401-.566.565-.985.921-2.025 2.152-2.546 2.781L10.411 2.635c-.228-.073-.492-.036-.693.11-.274.19-.402.537-.32.866l.028.09 2.737 4.924-10.11-.072h-.008c-.32 0-.62.191-.758.483-.137.292-.09.647.119.893l.027.028 9.882 9.309L.256 29.405c-.32.292-.346.793-.045 1.112.155.174.365.256.584.256.191 0 .383-.073.529-.21L13.64 19.266l-9.69-9.127 19.289.137 1.815-2.18c.01-.008.01-.018.019-.018l.319-.41c.018-.018 1.441-1.833 2.7-3.009.21-.2.411-.401.63-.629 1.031-1.067 2.2-2.28 4.9-2.298h.036c3.258 0 6.031 2.499 6.077 5.462.064 4.221-3.12 5.954-3.248 6.018l-.438.228.018.492c0 .027.073 2.781-1.067 5.972-1.515 4.24-4.325 7.14-8.367 8.635-4.407 1.623-8.44 1.54-12.007-.237-2.674-1.331-4.079-3.182-4.097-3.2l-.511-.684-4.763 4.13c-.328.283-.365.784-.082 1.112.283.329.785.365 1.113.082l3.522-3.054c.694.739 2.044 1.979 4.033 2.99 1.633.83 3.914 1.587 6.77 1.587 1.925 0 4.124-.346 6.56-1.24 4.434-1.632 7.655-4.95 9.307-9.583.967-2.708 1.131-5.097 1.158-6.081 1.068-.712 3.741-2.909 3.677-7.185-.009-.611-.11-1.213-.282-1.787l1.468-.73c.374-.182.53-.656.338-1.048zM22.501 8.699l-8.139-.063h-.392l-2.245-4.03 11.66 3.036-.884 1.057z"/>
    <path fill="white"  d="M36.524 6.246c.575 0 1.04-.466 1.04-1.04 0-.574-.465-1.04-1.04-1.04-.574 0-1.04.466-1.04 1.04 0 .574.466 1.04 1.04 1.04zM48.604 14.36V.3H57.3v2.226h-6.314v3.729h5.711v2.16h-5.711v3.73H57.3v2.216h-8.696zM61.606 8.826l2.482-.374c.556-.082.712-.355.712-.693 0-.811-.557-1.468-1.825-1.468-1.214 0-1.889.775-1.98 1.742l-2.108-.474c.183-1.669 1.688-3.155 4.07-3.155 2.974 0 4.105 1.687 4.105 3.61v4.797c0 .875.1 1.45.119 1.55h-2.144c-.019-.064-.1-.456-.1-1.231-.457.73-1.406 1.522-2.975 1.522-2.026 0-3.276-1.385-3.276-2.917.01-1.714 1.278-2.672 2.92-2.909zm3.193 1.532V9.92l-2.518.374c-.711.119-1.286.52-1.286 1.313 0 .657.492 1.25 1.405 1.25 1.296 0 2.4-.62 2.4-2.5zM74.68 6.984c-.255-.036-.52-.064-.757-.064-1.788 0-2.6 1.03-2.6 2.836v4.605h-2.3V4.705h2.245v1.55c.457-1.049 1.524-1.669 2.802-1.669.273 0 .52.037.61.064v2.334zM76.104 14.36V0h2.3v14.36h-2.3zM53.45 16.795c2.7 0 4.287 1.587 4.287 3.784 0 1.486-.875 2.598-2.08 3.036 1.488.392 2.519 1.687 2.519 3.356 0 2.26-1.743 3.884-4.362 3.884h-5.2v-14.06h4.835zm-.32 5.945c1.387 0 2.226-.793 2.226-1.96 0-1.186-.83-1.96-2.28-1.96h-2.108v3.929h2.162v-.01zm.255 6.09c1.433 0 2.364-.774 2.364-2.024 0-1.212-.813-2.06-2.282-2.06h-2.5v4.085h2.418zM61.196 16.303c.83 0 1.505.674 1.505 1.504s-.675 1.486-1.505 1.486c-.813 0-1.488-.656-1.488-1.486 0-.839.675-1.504 1.488-1.504zm-1.132 14.552v-9.656h2.281v9.656h-2.28zM70.347 23.478c-.256-.036-.52-.063-.757-.063-1.789 0-2.6 1.03-2.6 2.835v4.605h-2.3v-9.656h2.245v1.55c.456-1.049 1.523-1.669 2.8-1.669.274 0 .52.037.612.064v2.334zM80.876 29.086c0 .875.082 1.605.1 1.769h-2.208c-.036-.22-.1-.857-.1-1.25-.456.812-1.469 1.487-2.838 1.487-2.773 0-4.644-2.18-4.644-5.097 0-2.772 1.889-5.06 4.608-5.06 1.688 0 2.536.775 2.838 1.386v-5.827h2.244v12.592zm-4.781-.018c1.505 0 2.564-1.25 2.564-3.091 0-1.842-1.031-2.99-2.537-2.99-1.505 0-2.618 1.166-2.618 3.017-.01 1.833 1.022 3.064 2.591 3.064zM84.918 16.467L90 4.696h-2.445l-2.6 6.109-2.774-6.11H79.59l4.124 8.508s-.712 2.28-1.186 3.1c-.165.273-.794.2-.794.2V18.3s1.104.11 1.569-.109c.465-.219.566-.3.93-.666.22-.218.439-.583.566-.82l.119-.237z"/>
</svg>
